<svg xmlns="http://www.w3.org/2000/svg" id="flag-icons-cx" viewBox="0 0 640 480" width="16" height="12"><defs/><path fill="#0021ad" d="M0,0 L640,0 L640,480 L0,480 Z"/><path fill="#1c8a42" d="M0,0 L640,0 L640,480 Z"/><path fill="#ffc639" d="M377.8,240 A57.8 57.8 0 1 1 262.2,240 A57.8 57.8 0 1 1 377.8,240 Z"/><path fill="#1c8a42" d="M284.7,214 C288.7,219.5 294.7,228.6 299.5,226.2 C303.2,226.2 305.2,226.5 305.7,229 A37 37 0 0 0 338.7,214.7 C338.7,214.7 339.5,214.7 339.2,210.2 C339.2,208.2 342,208.6 342,209.2 C342.4,210.2 342.4,210.9 342.9,211 C343.9,210.6 345.6,208 346.9,206.4 Q347.2,205.4 347.1,204 C347.8,202.3 349.5,202.7 349.9,203.6 L350.5,205.2 C352.3,206.4 355.5,205.2 355.7,205.2 C356,203.8 356.9,204 356.9,204 C358.1,203.7 357.6,203.8 358.4,204.2 C357.7,211.9 359.9,212.2 359.7,216.2 C359.8,220.6 358.4,221.8 358.4,223.5 C358.8,225.5 365.4,225.6 363,227.4 C361,228.4 363,230.4 360,231.2 C351.2,235.7 349.6,239.5 349.6,239.5 C349.6,239.5 347.4,243.7 347.1,243.7 C345.6,246.5 343.8,244.9 342.7,246.3 C342.2,248 341.7,251.8 342.7,253.7 C343.2,256.4 342.7,257.9 342,260.6 C341.4,266.2 339.2,267.1 338.9,269 C337.9,271.2 339.1,281 338.1,281 C331.6,281.2 326.6,279.8 324,279.3 C326.5,268.4 325.5,258.9 325.5,257.9 C324.9,250.1 313.9,252 312.2,250.9 C310.8,250.7 309.9,249.6 309.5,249.1 C307.9,248.9 307.3,248.5 305.8,248.4 C305,248.8 305.5,249.2 303.8,249.7 C299.3,250.2 297.4,245.9 297.4,245.9 C297.6,244.4 287.5,246.2 282.1,244.9 C279.8,246.2 278.8,249.9 277,250.3 C277,251.4 274,249.3 273.4,248.3 C273.2,244.9 276.2,243.5 276.2,243.5 C278.6,241.8 280,241.5 281.2,240.4 C281.7,237.5 281.4,235.4 282.7,233.3 C283.7,231.6 285.2,232.3 286.2,231.7 C287.3,230.9 287.8,226.1 286.8,224.7 L282.1,220.5 C280.7,216.4 283.8,213.7 284.7,214"/><path fill="#ffc639" d="M561.9,142.4 C559.3,132.1 535.9,109.7 518.2,95.5 C514,92.7 511.2,94.4 511.8,98.5 C514,102.1 515.6,106.1 517.8,109.8 C518.4,112.3 519.6,114 520.2,116.4 C520.2,116.4 520.4,120.6 520.8,121 C526.2,127 527,132.1 527,132.1 A49 49 0 0 0 538.5,147.7 C544.7,151.6 540.1,163.7 540.3,170.2 C540.3,174.2 537.4,173.8 534.8,173.2 C514.7,154.7 494.7,154.7 477,149.3 C470.2,148.6 470,151.9 472.3,153.7 A129 129 0 0 0 511.4,183.3 L519.1,188.1 L527.9,195.4 C534.7,199.8 535.2,203.8 535.2,204.2 C535.4,212.4 531,218.8 529.7,221.4 C527.4,230.1 522.7,231.6 522.7,231.6 C485.1,257 465.3,263.6 404.3,255.7 C403.3,255.3 397.5,256.2 404.3,258.7 C419.8,263.9 458,272.2 494.9,254.7 C503.9,248.5 509.7,250.5 516.2,246.7 A287 287 0 0 1 544.5,231.3 C552.8,226.8 575.8,221.9 581.1,217.5 C587.2,217 593.5,216.2 593.9,211 C595.9,209.7 598.9,210.7 601.1,206.4 C605.9,205.5 605.1,203.8 605.1,203.8 C603.9,200.4 599.3,199 596.1,196.5 C591.3,194.9 588.1,194.5 584.6,196.1 L581.3,197.6 C581.3,197.6 576.2,196.9 576.2,196.5 C564.8,195.9 565.9,158.2 561.9,142.5 Z"/><path fill="#1c8a42" d="M588.6,204.2 A2.8 1.8 16 1 1 583.2,202.5 A2.8 1.8 16 0 1 588.6,204.2"/><path id="cx-a" fill="#fff" d="M120.448,202.24 L112.256,194.56 L104,202.112 L104.896,190.976 L93.824,189.184 L103.104,182.912 L97.6,173.184 L108.288,176.576 L112.448,166.208 L116.48,176.64 L127.168,173.44 L121.536,183.04 L130.752,189.44 L119.68,191.04 Z"/><path fill="#fff" d="M149.376,294.72 L140.544,288.896 L131.968,295.04 L135.04,285.12 L126.336,279.04 L136.96,278.784 L140.16,268.864 L143.744,278.656 L154.432,278.592 L145.92,284.8 L149.312,294.656 Z"/><path fill="#fff" d="M122.048,374.464 L113.856,366.784 L105.6,374.336 L106.496,363.2 L95.424,361.408 L104.704,355.136 L99.2,345.408 L109.888,348.8 L114.048,338.432 L118.08,348.864 L128.768,345.664 L123.136,355.264 L132.352,361.664 L121.28,363.264 Z"/><path fill="#fff" d="M48.704,281.088 L40.512,273.408 L32.256,280.96 L33.152,269.824 L22.08,268.032 L31.36,261.76 L25.856,252.032 L36.544,255.424 L40.704,245.056 L44.736,255.488 L55.424,252.288 L49.792,261.888 L59.008,268.288 L47.936,269.888 Z"/><path fill="#fff" d="M189.824,256.64 L181.632,248.96 L173.376,256.512 L174.272,245.376 L163.2,243.584 L172.48,237.312 L166.976,227.584 L177.664,230.976 L181.824,220.608 L185.856,231.04 L196.544,227.84 L190.912,237.44 L200.128,243.84 L189.056,245.44 Z"/></svg>
