<svg xmlns="http://www.w3.org/2000/svg" id="flag-icons-fm" viewBox="0 0 640 480" width="16" height="12"><defs/><path fill="#6797d6" d="M-0.122,0 L641.522,0 L641.522,481.28 L-0.122,481.28 Z"/><path fill="#fff" d="M173.872,258.876 L150.842,287.64 L152.158,251.92 L116.908,240.922 L153.004,229.924 L154.226,194.204 L175.188,223.156 L211.284,212.064 L188.16,240.922 L209.216,269.78 Z M466.964,258.782 L431.714,269.78 L452.77,240.922 L429.646,212.064 L465.742,223.156 L486.704,194.204 L487.926,229.924 L524.022,240.922 L488.772,251.92 L490.088,287.64 Z M320.512,115.62 L290.056,136.488 L301.712,102.742 L271.162,81.874 L308.856,81.874 L320.512,48.128 L332.168,81.968 L369.768,81.968 L339.312,102.742 L350.968,136.488 Z M320.512,366.6 L350.968,345.732 L339.312,379.478 L369.768,400.346 L332.168,400.252 L320.512,434.092 L308.856,400.346 L271.162,400.346 L301.712,379.572 L290.056,345.732 Z"/></svg>
