<svg xmlns="http://www.w3.org/2000/svg" id="flag-icons-np" viewBox="0 0 640 480" width="16" height="12"><defs/><path fill="#ce0000" d="M361.219,473.906 L6.188,473.906 L6.188,6.094 L370.031,238.5 L128.812,238.219 Z"/><path fill="#000063" d="M0,0 L8.664,0 L392.216,244.995 L144.294,244.706 L376.312,480 L6.094,480 L6.094,473.906 L0,473.906 Z M12.656,467.438 L345.755,467.438 L113.331,231.732 L347.847,232.005 L12.656,17.901 Z"/><path fill="#fff" d="M169.406,348.562 L144.094,357 L163.969,375.562 L137.25,373.875 L148.219,398.438 L124.313,386.906 L124.781,413.719 L107.156,394.125 L97.125,419.062 L88.5,394.406 L69.469,413.719 L71.156,387.75 L45.938,398.438 L57.75,375 L30.281,375.562 L50.438,358.406 L24.844,348.562 L50.156,340.125 L30.188,321.562 L56.812,323.25 L45.938,298.688 L69.938,310.219 L69.469,283.406 L87.094,303 L97.125,278.062 L105.656,302.719 L124.781,283.406 L123,309.375 L148.312,298.688 L136.406,322.125 L163.969,321.562 L143.812,338.719 Z M139.031,175.406 L128.438,183.281 L133.688,187.594 C146.002,178.982 155.909,167.364 162.469,153.844 C164.156,173.812 145.875,218.531 98.062,219 C80.411,219.225 63.402,212.39 50.814,200.014 C38.227,187.638 31.105,170.746 31.031,153.094 C40.406,170.156 46.219,178.406 61.031,187.312 L65.438,183.188 L55.5,174.844 L68.344,171.469 L61.406,159.844 L74.906,160.781 L73.219,147.281 L85.031,154.219 L88.781,141.562 L97.219,151.688 L105.188,142.031 L109.5,155.156 L120.563,147.469 L119.156,160.875 L132.469,159.281 L126.188,171.656 Z"/></svg>
