<svg xmlns="http://www.w3.org/2000/svg" id="flag-icons-tw" viewBox="0 0 640 480" width="16" height="12"><defs/><path fill="red" d="M0,0 L640,0 L640,480 L0,480 Z"/><path fill="#000095" d="M0,0 L360,0 L360,240 L0,240 Z"/><path fill="#fff" d="M154,126.9 L159.1,132 L160.9,139.1 L151.5,136.5 Z M200.9,132 L206,126.9 L208.5,136.5 L199.1,139.1 Z M159.1,108 L155.9,120 L154,113.1 Z"/><path fill="#fff" d="M155.9,120 L159.1,132 L154,126.9 Z"/><path fill="#fff" d="M186.9,146 L192,140.9 L199.1,139.1 L196.5,148.5 Z M154,113.1 L155.9,120 L154,126.9 L147.1,120 Z M168,140.9 L180,144.1 L173.1,146 Z"/><path fill="#fff" d="M160.9,139.1 L168,140.9 L173.1,146 L163.5,148.5 Z M192,140.9 L186.9,146 L180,144.1 L192,140.9 L200.9,132 L199.1,139.1 Z"/><path fill="#fff" d="M160.9,100.9 L159.1,108 L154,113.1 L151.5,103.5 Z M173.1,146 L180,144.1 L186.9,146 L180,152.9 Z M159.1,132 L168,140.9 L160.9,139.1 Z M204.1,120 L200.9,108 L206,113.1 Z"/><path fill="#fff" d="M206,126.9 L204.1,120 L206,113.1 L212.9,120 Z M168,99.1 L159.1,108 L160.9,100.9 Z M200.9,108 L192,99.1 L199.1,100.9 Z"/><path fill="#fff" d="M200.9,108 L204.1,120 L200.9,132 L192,140.9 L180,144.1 L168,140.9 L159.1,132 L155.9,120 L159.1,108 L168,99.1 L180,95.9 L192,99.1 Z"/><path fill="#fff" d="M199.1,100.9 L208.5,103.5 L206,113.1 L200.9,108 L199.1,100.9 L192,99.1 L186.9,94 L196.5,91.5 Z M173.1,94 L180,95.9 L168,99.1 L160.9,100.9 L163.5,91.5 Z M200.9,132 L204.1,120 L206,126.9 Z"/><path fill="#fff" d="M186.9,94 L180,95.9 L173.1,94 L180,87.1 Z"/><path fill="#fff" d="M173.1,146 L180,152.9 L192,165.1 L180,210 L168,165.1 L163.5,148.5 Z M160.9,139.1 L163.5,148.5 L147.1,152.9 L151.5,136.5 Z M192,99.1 L180,95.9 L186.9,94 Z"/><path fill="#fff" d="M147.1,152.9 L163.5,148.5 L168,165.1 L135.1,198 L147.1,152.9 L102,165.1 L135.1,132 L151.5,136.5 Z"/><path fill="#fff" d="M154,113.1 L147.1,120 L135.1,108 L151.5,103.5 Z M154,126.9 L151.5,136.5 L135.1,132 L147.1,120 Z"/><path fill="#fff" d="M225.1,132 L258,165.1 L212.9,152.9 L208.5,136.5 Z M135.1,108 L147.1,120 L135.1,132 L90,120 Z"/><path fill="#fff" d="M206,126.9 L212.9,120 L225.1,132 L208.5,136.5 L212.9,152.9 L196.5,148.5 L192,165.1 L180,152.9 L186.9,146 L196.5,148.5 L199.1,139.1 L208.5,136.5 Z"/><path fill="#fff" d="M192,165.1 L196.5,148.5 L212.9,152.9 L225.1,198 Z M199.1,100.9 L196.5,91.5 L212.9,87.1 L208.5,103.5 Z"/><path fill="#fff" d="M212.9,87.1 L258,75.1 L225.1,108 L208.5,103.5 Z M225.1,42 L212.9,87.1 L196.5,91.5 L192,75.1 Z M225.1,132 L212.9,120 L225.1,108 L270,120 Z"/><path fill="#fff" d="M168,75.1 L163.5,91.5 L147.1,87.1 L135.1,42 Z M206,113.1 L208.5,103.5 L225.1,108 L212.9,120 Z"/><path fill="#fff" d="M160.9,100.9 L151.5,103.5 L147.1,87.1 L163.5,91.5 Z"/><path fill="#fff" d="M147.1,87.1 L151.5,103.5 L135.1,108 L102,75.1 Z M186.9,94 L180,87.1 L192,75.1 L196.5,91.5 Z"/><path fill="#fff" d="M192,75.1 L180,87.1 L168,75.1 L180,30 Z"/><path fill="#fff" d="M173.1,94 L163.5,91.5 L168,75.1 L180,87.1 Z"/><path fill="#000095" d="M231.1,120 C231.1,148.222 208.222,171.1 180,171.1 C151.778,171.1 128.9,148.222 128.9,120 C128.9,91.778 151.778,68.9 180,68.9 C208.222,68.9 231.1,91.778 231.1,120 Z"/><path fill="#fff" d="M225.1,120 C225.1,144.908 204.908,165.1 180,165.1 C155.092,165.1 134.9,144.908 134.9,120 C134.9,95.092 155.092,74.9 180,74.9 C204.908,74.9 225.1,95.092 225.1,120 Z"/></svg>
